<mxfile host="app.diagrams.net" modified="2021-06-27T12:31:33.640Z" agent="5.0 (Macintosh; Intel Mac OS X 10_15_7) AppleWebKit/537.36 (KHTML, like Gecko) Chrome/91.0.4472.106 Safari/537.36" etag="eSJWoDtKfzkjYvSi26CG" version="14.8.1" type="github">
  <diagram id="6UO_RfwHxwbF6oqnQ0xU" name="Page-1">
    <mxGraphModel dx="1691" dy="794" grid="1" gridSize="10" guides="1" tooltips="1" connect="1" arrows="1" fold="1" page="1" pageScale="1" pageWidth="827" pageHeight="1169" math="0" shadow="0">
      <root>
        <mxCell id="0" />
        <mxCell id="1" parent="0" />
        <mxCell id="Kb8ZxoE7uC22eAhm2sxR-25" style="edgeStyle=orthogonalEdgeStyle;rounded=0;orthogonalLoop=1;jettySize=auto;html=1;exitX=0.5;exitY=1;exitDx=0;exitDy=0;" edge="1" parent="1" source="Kb8ZxoE7uC22eAhm2sxR-1">
          <mxGeometry relative="1" as="geometry">
            <mxPoint x="300" y="110" as="targetPoint" />
          </mxGeometry>
        </mxCell>
        <mxCell id="Kb8ZxoE7uC22eAhm2sxR-1" value="i = 0" style="rounded=1;whiteSpace=wrap;html=1;" vertex="1" parent="1">
          <mxGeometry x="210" y="40" width="230" height="60" as="geometry" />
        </mxCell>
        <mxCell id="Kb8ZxoE7uC22eAhm2sxR-3" value="&lt;span&gt;i &amp;lt; numbers.length&lt;/span&gt;" style="shape=trapezoid;perimeter=trapezoidPerimeter;whiteSpace=wrap;html=1;fixedSize=1;" vertex="1" parent="1">
          <mxGeometry x="190" y="160" width="270" height="60" as="geometry" />
        </mxCell>
        <mxCell id="Kb8ZxoE7uC22eAhm2sxR-6" value="&lt;pre style=&quot;box-sizing: border-box ; font-family: &amp;#34;inconsolata&amp;#34; , sans-serif ; font-size: 15px ; overflow: scroll auto ; overflow-wrap: break-word ; border: none ; padding: 0px ; border-radius: 5px ; background: transparent ; margin-top: 0px ; margin-bottom: 0px ; width: 750px ; line-height: 24px&quot;&gt;&lt;br&gt;&lt;/pre&gt;" style="shape=trapezoid;perimeter=trapezoidPerimeter;whiteSpace=wrap;html=1;fixedSize=1;direction=west;" vertex="1" parent="1">
          <mxGeometry x="182.5" y="490" width="285" height="60" as="geometry" />
        </mxCell>
        <mxCell id="Kb8ZxoE7uC22eAhm2sxR-12" value="None" style="rounded=1;whiteSpace=wrap;html=1;" vertex="1" parent="1">
          <mxGeometry x="190" y="600" width="270" height="90" as="geometry" />
        </mxCell>
        <mxCell id="Kb8ZxoE7uC22eAhm2sxR-13" value="&lt;pre style=&quot;box-sizing: border-box ; font-family: &amp;#34;inconsolata&amp;#34; , sans-serif ; font-size: 15px ; overflow: scroll auto ; overflow-wrap: break-word ; border: none ; padding: 0px ; border-radius: 5px ; background: transparent ; margin-top: 0px ; margin-bottom: 0px ; width: 750px ; line-height: 24px&quot;&gt;&lt;span class=&quot;k&quot; style=&quot;box-sizing: border-box ; font-weight: bold&quot;&gt;if&lt;/span&gt; &lt;span class=&quot;n&quot; style=&quot;box-sizing: border-box&quot;&gt;numbers&lt;/span&gt;&lt;span class=&quot;p&quot; style=&quot;box-sizing: border-box&quot;&gt;[&lt;/span&gt;&lt;span class=&quot;n&quot; style=&quot;box-sizing: border-box&quot;&gt;i&lt;/span&gt;&lt;span class=&quot;p&quot; style=&quot;box-sizing: border-box&quot;&gt;]&lt;/span&gt; &lt;span class=&quot;o&quot; style=&quot;box-sizing: border-box ; font-weight: bold&quot;&gt;==&lt;/span&gt; &lt;span class=&quot;n&quot; style=&quot;box-sizing: border-box&quot;&gt;value&lt;/span&gt;&lt;/pre&gt;" style="rhombus;whiteSpace=wrap;html=1;" vertex="1" parent="1">
          <mxGeometry x="190" y="260" width="270" height="80" as="geometry" />
        </mxCell>
        <mxCell id="Kb8ZxoE7uC22eAhm2sxR-18" value="i +=1" style="rounded=1;whiteSpace=wrap;html=1;" vertex="1" parent="1">
          <mxGeometry x="540" y="270" width="190" height="60" as="geometry" />
        </mxCell>
        <mxCell id="Kb8ZxoE7uC22eAhm2sxR-19" value="" style="endArrow=none;html=1;entryX=0;entryY=0.5;entryDx=0;entryDy=0;exitX=1;exitY=0.5;exitDx=0;exitDy=0;" edge="1" parent="1" source="Kb8ZxoE7uC22eAhm2sxR-13" target="Kb8ZxoE7uC22eAhm2sxR-18">
          <mxGeometry width="50" height="50" relative="1" as="geometry">
            <mxPoint x="370" y="420" as="sourcePoint" />
            <mxPoint x="420" y="370" as="targetPoint" />
          </mxGeometry>
        </mxCell>
        <mxCell id="Kb8ZxoE7uC22eAhm2sxR-20" value="No" style="text;html=1;align=center;verticalAlign=middle;resizable=0;points=[];autosize=1;strokeColor=none;" vertex="1" parent="1">
          <mxGeometry x="465" y="240" width="30" height="20" as="geometry" />
        </mxCell>
        <mxCell id="Kb8ZxoE7uC22eAhm2sxR-22" value="" style="endArrow=classic;html=1;entryX=0;entryY=0.5;entryDx=0;entryDy=0;exitX=0.5;exitY=1;exitDx=0;exitDy=0;" edge="1" parent="1" source="Kb8ZxoE7uC22eAhm2sxR-18" target="Kb8ZxoE7uC22eAhm2sxR-6">
          <mxGeometry width="50" height="50" relative="1" as="geometry">
            <mxPoint x="650" y="340" as="sourcePoint" />
            <mxPoint x="420" y="370" as="targetPoint" />
            <Array as="points">
              <mxPoint x="635" y="400" />
              <mxPoint x="635" y="520" />
            </Array>
          </mxGeometry>
        </mxCell>
        <mxCell id="Kb8ZxoE7uC22eAhm2sxR-24" value="" style="endArrow=classic;html=1;exitX=0.474;exitY=1.033;exitDx=0;exitDy=0;exitPerimeter=0;" edge="1" parent="1" source="Kb8ZxoE7uC22eAhm2sxR-1">
          <mxGeometry width="50" height="50" relative="1" as="geometry">
            <mxPoint x="300" y="100" as="sourcePoint" />
            <mxPoint x="320" y="159" as="targetPoint" />
          </mxGeometry>
        </mxCell>
        <mxCell id="Kb8ZxoE7uC22eAhm2sxR-27" value="" style="endArrow=classic;html=1;exitX=0.5;exitY=0;exitDx=0;exitDy=0;" edge="1" parent="1" source="Kb8ZxoE7uC22eAhm2sxR-6" target="Kb8ZxoE7uC22eAhm2sxR-12">
          <mxGeometry width="50" height="50" relative="1" as="geometry">
            <mxPoint x="370" y="420" as="sourcePoint" />
            <mxPoint x="420" y="370" as="targetPoint" />
          </mxGeometry>
        </mxCell>
        <mxCell id="Kb8ZxoE7uC22eAhm2sxR-28" value="" style="endArrow=classic;html=1;" edge="1" parent="1" target="Kb8ZxoE7uC22eAhm2sxR-13">
          <mxGeometry width="50" height="50" relative="1" as="geometry">
            <mxPoint x="323" y="221" as="sourcePoint" />
            <mxPoint x="420" y="410" as="targetPoint" />
          </mxGeometry>
        </mxCell>
        <mxCell id="Kb8ZxoE7uC22eAhm2sxR-29" value="" style="endArrow=classic;html=1;exitX=0.5;exitY=1;exitDx=0;exitDy=0;entryX=0.5;entryY=1;entryDx=0;entryDy=0;" edge="1" parent="1" source="Kb8ZxoE7uC22eAhm2sxR-13" target="Kb8ZxoE7uC22eAhm2sxR-6">
          <mxGeometry width="50" height="50" relative="1" as="geometry">
            <mxPoint x="370" y="460" as="sourcePoint" />
            <mxPoint x="420" y="410" as="targetPoint" />
          </mxGeometry>
        </mxCell>
        <mxCell id="Kb8ZxoE7uC22eAhm2sxR-39" value="" style="edgeStyle=orthogonalEdgeStyle;rounded=0;orthogonalLoop=1;jettySize=auto;html=1;" edge="1" parent="1" source="Kb8ZxoE7uC22eAhm2sxR-31" target="Kb8ZxoE7uC22eAhm2sxR-13">
          <mxGeometry relative="1" as="geometry" />
        </mxCell>
        <mxCell id="Kb8ZxoE7uC22eAhm2sxR-31" value="&lt;span&gt;return i&lt;/span&gt;" style="rounded=1;whiteSpace=wrap;html=1;" vertex="1" parent="1">
          <mxGeometry x="190" y="370" width="270" height="80" as="geometry" />
        </mxCell>
        <mxCell id="Kb8ZxoE7uC22eAhm2sxR-34" value="Yes" style="text;html=1;align=center;verticalAlign=middle;resizable=0;points=[];autosize=1;strokeColor=none;" vertex="1" parent="1">
          <mxGeometry x="370" y="330" width="40" height="20" as="geometry" />
        </mxCell>
      </root>
    </mxGraphModel>
  </diagram>
</mxfile>
